<?xml version="1.0" encoding="UTF-8" standalone="no"?>
<!-- Created with Inkscape (http://www.inkscape.org/) -->

<svg
   width="301.8894mm"
   height="344.23547mm"
   viewBox="0 0 301.88941 344.23547"
   version="1.1"
   id="svg1"
   xmlns="http://www.w3.org/2000/svg"
   xmlns:svg="http://www.w3.org/2000/svg">
  <defs
     id="defs1">
    <rect
       x="85.405556"
       y="1320.4691"
       width="196.80409"
       height="179.69804"
       id="rect35" />
    <rect
       x="85.405556"
       y="1320.4691"
       width="196.80409"
       height="179.69804"
       id="rect36" />
    <rect
       x="85.405556"
       y="1320.4691"
       width="196.80409"
       height="179.69804"
       id="rect37" />
    <rect
       x="85.405556"
       y="1320.4691"
       width="196.80409"
       height="179.69804"
       id="rect38" />
    <rect
       x="85.405556"
       y="1320.4691"
       width="196.80409"
       height="179.69804"
       id="rect39" />
    <rect
       x="85.405556"
       y="1320.4691"
       width="196.80409"
       height="179.69804"
       id="rect40" />
    <rect
       x="85.405556"
       y="1320.4691"
       width="196.80409"
       height="179.69804"
       id="rect41" />
    <rect
       x="85.405556"
       y="1320.4691"
       width="196.80409"
       height="179.69804"
       id="rect43" />
    <rect
       x="85.405556"
       y="1320.4691"
       width="196.80409"
       height="179.69804"
       id="rect44" />
    <rect
       x="85.405556"
       y="1320.4691"
       width="196.80409"
       height="179.69804"
       id="rect45" />
    <rect
       x="85.405556"
       y="1320.4691"
       width="196.80409"
       height="179.69804"
       id="rect46" />
    <rect
       x="85.405556"
       y="1320.4691"
       width="196.80409"
       height="179.69804"
       id="rect47" />
    <rect
       x="85.405556"
       y="1320.4691"
       width="196.80409"
       height="179.69804"
       id="rect48" />
    <rect
       x="85.405556"
       y="1320.4691"
       width="196.80409"
       height="179.69804"
       id="rect49" />
    <rect
       x="85.405556"
       y="1320.4691"
       width="196.80409"
       height="179.69804"
       id="rect50" />
    <rect
       x="85.405556"
       y="1320.4691"
       width="196.80409"
       height="179.69804"
       id="rect51" />
    <rect
       x="85.405556"
       y="1320.4691"
       width="196.80409"
       height="179.69804"
       id="rect52" />
    <rect
       x="85.405556"
       y="1320.4691"
       width="196.80409"
       height="179.69804"
       id="rect53" />
    <rect
       x="85.405556"
       y="1320.4691"
       width="196.80409"
       height="179.69804"
       id="rect54" />
  </defs>
  <g
     id="layer1"
     transform="translate(-63.206453,-33.873121)">
    <g
       id="g2">
      <path
         style="color:#000000;mix-blend-mode:normal;fill:#411d27;fill-opacity:1;stroke:#572a39;stroke-width:2;stroke-miterlimit:0;stroke-dasharray:none;stroke-opacity:1"
         d="m 265.82555,124.11524 c -13.32434,-12.22217 -29.44337,-21.70938 -47.72693,-27.330424 -2.09502,-0.644086 -4.27102,0.609532 -4.83832,2.726726 l -9.67983,36.125708 c -0.5673,2.1172 0.68921,4.2978 2.77155,4.9814 10.37281,3.40524 19.65263,8.71056 27.55429,15.4231 1.67032,1.41895 4.21787,1.38512 5.76776,-0.16477 9.77387,-9.77386 17.21563,-17.21557 26.227,-26.22693 1.54989,-1.54989 1.53967,-4.05323 -0.0755,-5.53481 z"
         id="G"
         transform="translate(10.109939,-9.4359433)" />
      <path
         style="color:#000000;fill:#411d27;fill-opacity:1;stroke:#572a39;stroke-width:2;stroke-miterlimit:0;stroke-dasharray:none;stroke-opacity:1"
         d="m 301.30533,180.25147 c -5.49589,-17.72771 -14.7765,-34.04864 -27.15669,-47.75375 -1.46921,-1.62646 -3.96269,-1.64631 -5.51258,-0.0964 -9.00112,9.00111 -16.4333,16.43347 -26.19403,26.19424 -1.54988,1.5499 -1.55992,4.07447 -0.10951,5.71755 7.07797,8.01818 12.54772,17.34718 16.08521,27.43465 0.72527,2.06819 2.93918,3.31537 5.05638,2.74807 13.05938,-3.49926 23.01722,-6.16751 35.11403,-9.40882 2.11719,-0.5673 3.36621,-2.74203 2.71719,-4.83553 z"
         id="D"
         transform="translate(10.109939,-9.4359433)" />
      <path
         style="color:#000000;fill:#411d27;fill-opacity:1;stroke:#572a39;stroke-width:2;stroke-miterlimit:0;stroke-dasharray:none;stroke-opacity:1"
         d="m 303.89564,246.37394 c 4.16338,-18.56937 4.09157,-37.15496 0.38593,-54.68989 -0.45317,-2.14443 -2.5971,-3.40974 -4.71429,-2.84245 -12.08598,3.23837 -22.03345,5.9037 -35.07589,9.3983 -2.1172,0.56729 -3.39744,2.75099 -2.97558,4.90167 2.01478,10.27175 2.08523,21.0616 -0.0697,31.86033 -0.42891,2.1493 0.84762,4.33202 2.96482,4.89932 l 34.72473,9.30446 c 2.1172,0.5673 4.28052,-0.69304 4.76003,-2.83174 z"
         id="A"
         transform="translate(10.109939,-9.4359433)" />
      <path
         style="color:#000000;fill:#411d27;fill-opacity:1;stroke:#572a39;stroke-width:2;stroke-miterlimit:0;stroke-dasharray:none;stroke-opacity:1"
         d="m 273.51128,305.02517 c 12.04014,-13.22978 21.48151,-29.18636 27.27605,-47.25315 0.66939,-2.08708 -0.56148,-4.25675 -2.67868,-4.82405 l -34.72602,-9.30481 c -2.1172,-0.5673 -4.33365,0.67911 -5.06101,2.74657 -3.6362,10.33555 -9.17302,19.54459 -16.11089,27.33606 -1.45748,1.63681 -1.45339,4.15552 0.0965,5.70541 9.56993,9.56985 16.8309,16.83053 25.6813,25.68088 1.54989,1.54989 4.04751,1.53409 5.52274,-0.0869 z"
         id="E"
         transform="translate(10.109939,-9.4359433)" />
      <path
         style="color:#000000;fill:#411d27;fill-opacity:1;stroke:#572a39;stroke-width:2;stroke-miterlimit:0;stroke-dasharray:none;stroke-opacity:1"
         d="m 217.92771,340.74726 c 17.48929,-5.576 33.63736,-14.91346 47.25312,-27.34568 1.61858,-1.47788 1.63232,-3.97761 0.0824,-5.52749 -8.86673,-8.86668 -16.14218,-16.14187 -25.73695,-25.7366 -1.54989,-1.54989 -4.1031,-1.58976 -5.77946,-0.17794 -8.08336,6.80773 -17.41558,12.02098 -27.46353,15.33162 -2.0816,0.68585 -3.33791,2.86727 -2.7706,4.98447 3.58644,13.38469 6.29221,23.4833 9.58828,35.78416 0.56732,2.11719 1.02722,3.83352 1.02722,3.83353 z"
         id="B"
         transform="translate(10.109939,-9.4359433)" />
      <path
         style="color:#000000;fill:#411d27;fill-opacity:1;stroke:#572a39;stroke-width:2;stroke-miterlimit:0;stroke-dasharray:none;stroke-opacity:1"
         d="m 151.98925,343.51092 c 18.47975,4.23662 37.01848,4.12569 54.53126,0.30476 2.14141,-0.46722 3.40364,-2.6235 2.83636,-4.7407 -3.30138,-12.32151 -6.012,-22.43839 -9.60577,-35.85108 -0.56728,-2.1172 -2.75895,-3.43032 -4.91718,-3.04895 -10.05671,1.77705 -20.57992,1.70369 -31.10074,-0.49813 -2.1452,-0.44896 -4.32368,0.81124 -4.89098,2.92844 l -9.67968,36.12504 c -0.5673,2.1172 0.69036,4.29084 2.82673,4.78062 z"
         id="Fsharp"
         transform="translate(10.109939,-9.4359433)" />
      <path
         style="color:#000000;fill:#411d27;fill-opacity:1;stroke:#572a39;stroke-width:2;stroke-miterlimit:0;stroke-dasharray:none;stroke-opacity:1"
         d="m 94.054692,312.59589 c 12.977828,12.23593 28.701548,21.83163 46.560958,27.71783 2.08164,0.68608 4.24802,-0.5332 4.81532,-2.6504 l 9.67967,-36.12502 c 0.5673,-2.1172 -0.67431,-4.34978 -2.73468,-5.09698 -9.97092,-3.61597 -18.87428,-9.01034 -26.44696,-15.72332 -1.64004,-1.45385 -4.16161,-1.44687 -5.7115,0.10303 -9.85614,9.85622 -17.18926,17.18924 -26.200638,26.20074 -1.549883,1.5499 -1.556911,4.07054 0.03783,5.57412 z"
         id="Db"
         transform="translate(10.109939,-9.4359433)" />
      <path
         style="color:#000000;fill:#411d27;fill-opacity:1;stroke:#572a39;stroke-width:2;stroke-miterlimit:0;stroke-dasharray:none;stroke-opacity:1"
         d="m 59.705058,257.21945 c 5.308151,17.3385 14.226427,33.34725 26.128925,46.89325 1.446725,1.64649 3.922569,1.68317 5.472444,0.13326 9.010693,-9.01091 16.340393,-16.34098 26.199013,-26.19978 1.54988,-1.5499 1.58682,-4.10037 0.17081,-5.77319 -6.62867,-7.83088 -11.76532,-16.8388 -15.11119,-26.54176 -0.71447,-2.07194 -2.919096,-3.32182 -5.036291,-2.75452 -13.210285,3.53967 -22.990217,6.16039 -35.09316,9.40333 -2.117195,0.56729 -3.37217,2.74363 -2.730551,4.83941 z"
         id="Ab"
         transform="translate(10.109939,-9.4359433)" />
      <path
         style="color:#000000;fill:#411d27;fill-opacity:1;stroke:#572a39;stroke-width:2;stroke-miterlimit:0;stroke-dasharray:none;stroke-opacity:1"
         d="m 57.043241,192.461 c -3.921638,18.10368 -3.839455,36.20705 -0.287383,53.31889 0.445475,2.14604 2.583404,3.41283 4.7006,2.84554 12.097889,-3.24158 21.87247,-5.86059 35.074419,-9.39798 2.117197,-0.56729 3.406756,-2.75334 2.996984,-4.90635 -1.873211,-9.84218 -1.956871,-20.15319 -0.01741,-30.48467 0.404366,-2.15405 -0.891976,-4.3417 -3.00917,-4.909 l -34.726033,-9.30479 c -2.117194,-0.5673 -4.26798,0.69625 -4.732007,2.83836 z"
         id="Eb"
         transform="translate(10.109939,-9.4359433)" />
      <path
         style="color:#000000;fill:#411d27;fill-opacity:1;stroke:#572a39;stroke-width:2;stroke-miterlimit:0;stroke-dasharray:none;stroke-opacity:1"
         d="m 86.202825,134.42117 c -11.569936,13.14413 -20.60936,28.88128 -26.152601,46.61529 -0.653904,2.09198 0.589417,4.26513 2.706611,4.83243 l 34.724747,9.30447 c 2.117194,0.5673 4.314048,-0.68473 5.017308,-2.76051 3.39005,-10.00628 8.55125,-18.97984 15.04195,-26.65783 1.41493,-1.67373 1.37815,-4.22406 -0.17175,-5.77395 -9.65113,-9.65103 -16.83216,-16.83192 -25.691645,-25.69128 -1.549904,-1.54988 -4.026442,-1.51383 -5.47462,0.13138 z"
         id="Bb"
         transform="translate(10.109939,-9.4359433)" />
      <path
         style="color:#000000;fill:#411d27;fill-opacity:1;stroke:#572a39;stroke-width:2;stroke-miterlimit:0;stroke-dasharray:none;stroke-opacity:1"
         d="m 140.65574,97.989647 c -17.16513,5.881123 -32.94878,15.426063 -46.223099,27.956553 -1.593844,1.50453 -1.587029,4.02493 -0.03715,5.57483 8.857245,8.85736 16.037965,16.03811 25.686105,25.68628 1.54989,1.54989 4.07161,1.55702 5.7116,0.10312 7.76988,-6.88829 16.77983,-12.25714 26.52169,-15.82069 2.05829,-0.75292 3.29854,-2.98997 2.73124,-5.10717 -3.59507,-13.41692 -6.29222,-23.48223 -9.5891,-35.78647 -0.56729,-2.117195 -2.72782,-3.316864 -4.80129,-2.606453 z"
         id="F"
         transform="translate(10.109939,-9.4359433)" />
      <path
         style="color:#000000;fill:#411d27;fill-opacity:1;stroke:#572a39;stroke-width:2;stroke-miterlimit:0;stroke-dasharray:none;stroke-dashoffset:0;stroke-opacity:1"
         d="m 207.94439,94.144004 c -19.46017,-4.263353 -38.9541,-3.728007 -57.22559,0.873915 -1.41697,0.356884 -2.25212,1.817398 -1.87392,3.228861 3.56014,13.2868 6.38174,23.81798 10.27402,38.34425 0.3782,1.41146 1.83036,2.25274 3.25548,1.93008 13.48389,-3.05291 25.35478,-2.16699 33.82517,-0.53466 1.43477,0.27649 2.8959,-0.60095 3.27409,-2.01241 l 10.36442,-38.681246 c 0.37819,-1.411464 -0.4663,-2.836079 -1.89367,-3.14879 z"
         id="C"
         transform="translate(10.109939,-9.4359433)" />
      <text
         xml:space="preserve"
         transform="matrix(0.26458333,0,0,0.26458333,159.28107,-255.10883)"
         id="Ctext"
         style="font-style:normal;font-variant:normal;font-weight:bold;font-stretch:normal;font-size:74.6667px;font-family:Satoshi;-inkscape-font-specification:'Satoshi, Bold';font-variant-ligatures:normal;font-variant-caps:normal;font-variant-numeric:normal;font-variant-east-asian:normal;white-space:pre;shape-inside:url(#rect35);display:inline;fill:#cc4c70;fill-opacity:1;stroke:#000000;stroke-width:0"><tspan
           x="85.40625"
           y="1390.1328"
           id="tspan1">C</tspan></text>
      <text
         xml:space="preserve"
         transform="matrix(0.26458333,0,0,0.26458333,211.7414,-243.16439)"
         id="Gtext"
         style="font-style:normal;font-variant:normal;font-weight:bold;font-stretch:normal;font-size:74.6667px;font-family:Satoshi;-inkscape-font-specification:'Satoshi, Bold';font-variant-ligatures:normal;font-variant-caps:normal;font-variant-numeric:normal;font-variant-east-asian:normal;white-space:pre;shape-inside:url(#rect36);display:inline;fill:#cc4c70;fill-opacity:1;stroke:#000000;stroke-width:0"><tspan
           x="85.40625"
           y="1390.1328"
           id="tspan2">G</tspan></text>
      <text
         xml:space="preserve"
         transform="matrix(0.26458333,0,0,0.26458333,250.53358,-203.74963)"
         id="Dtext"
         style="font-style:normal;font-variant:normal;font-weight:bold;font-stretch:normal;font-size:74.6667px;font-family:Satoshi;-inkscape-font-specification:'Satoshi, Bold';font-variant-ligatures:normal;font-variant-caps:normal;font-variant-numeric:normal;font-variant-east-asian:normal;white-space:pre;shape-inside:url(#rect37);display:inline;fill:#cc4c70;fill-opacity:1;stroke:#000000;stroke-width:0"><tspan
           x="85.40625"
           y="1390.1328"
           id="tspan3">D</tspan></text>
      <text
         xml:space="preserve"
         transform="matrix(0.26458333,0,0,0.26458333,264.51464,-150.72181)"
         id="Atext"
         style="font-style:normal;font-variant:normal;font-weight:bold;font-stretch:normal;font-size:74.6667px;font-family:Satoshi;-inkscape-font-specification:'Satoshi, Bold';font-variant-ligatures:normal;font-variant-caps:normal;font-variant-numeric:normal;font-variant-east-asian:normal;white-space:pre;shape-inside:url(#rect38);display:inline;fill:#cc4c70;fill-opacity:1;stroke:#000000;stroke-width:0"><tspan
           x="85.40625"
           y="1390.1328"
           id="tspan4">A</tspan></text>
      <text
         xml:space="preserve"
         transform="matrix(0.26458333,0,0,0.26458333,250.41121,-99.472125)"
         id="Etext"
         style="font-style:normal;font-variant:normal;font-weight:bold;font-stretch:normal;font-size:74.6667px;font-family:Satoshi;-inkscape-font-specification:'Satoshi, Bold';font-variant-ligatures:normal;font-variant-caps:normal;font-variant-numeric:normal;font-variant-east-asian:normal;white-space:pre;shape-inside:url(#rect39);display:inline;fill:#cc4c70;fill-opacity:1;stroke:#000000;stroke-width:0"><tspan
           x="85.40625"
           y="1390.1328"
           id="tspan5">E</tspan></text>
      <text
         xml:space="preserve"
         transform="matrix(0.26458333,0,0,0.26458333,212.3874,-58.996349)"
         id="Btext"
         style="font-style:normal;font-variant:normal;font-weight:bold;font-stretch:normal;font-size:74.6667px;font-family:Satoshi;-inkscape-font-specification:'Satoshi, Bold';font-variant-ligatures:normal;font-variant-caps:normal;font-variant-numeric:normal;font-variant-east-asian:normal;white-space:pre;shape-inside:url(#rect40);display:inline;fill:#cc4c70;fill-opacity:1;stroke:#000000;stroke-width:0"><tspan
           x="85.40625"
           y="1390.1328"
           id="tspan6">B</tspan></text>
      <text
         xml:space="preserve"
         transform="matrix(0.26458333,0,0,0.26458333,153.58677,-46.197422)"
         id="Fsharptext"
         style="font-style:normal;font-variant:normal;font-weight:bold;font-stretch:normal;font-size:74.6667px;font-family:Satoshi;-inkscape-font-specification:'Satoshi, Bold';font-variant-ligatures:normal;font-variant-caps:normal;font-variant-numeric:normal;font-variant-east-asian:normal;white-space:pre;shape-inside:url(#rect41);display:inline;fill:#cc4c70;fill-opacity:1;stroke:#000000;stroke-width:0"><tspan
           x="85.40625"
           y="1390.1328"
           id="tspan7">F#</tspan></text>
      <text
         xml:space="preserve"
         transform="matrix(0.26458333,0,0,0.26458333,99.527399,-61.898049)"
         id="Dbtext"
         style="font-style:normal;font-variant:normal;font-weight:bold;font-stretch:normal;font-size:74.6667px;font-family:Satoshi;-inkscape-font-specification:'Satoshi, Bold';font-variant-ligatures:normal;font-variant-caps:normal;font-variant-numeric:normal;font-variant-east-asian:normal;white-space:pre;shape-inside:url(#rect43);display:inline;fill:#cc4c70;fill-opacity:1;stroke:#000000;stroke-width:0"><tspan
           x="85.40625"
           y="1390.1328"
           id="tspan8">Db</tspan></text>
      <text
         xml:space="preserve"
         transform="matrix(0.26458333,0,0,0.26458333,64.607636,-100.84645)"
         id="Abtext"
         style="font-style:normal;font-variant:normal;font-weight:bold;font-stretch:normal;font-size:74.6667px;font-family:Satoshi;-inkscape-font-specification:'Satoshi, Bold';font-variant-ligatures:normal;font-variant-caps:normal;font-variant-numeric:normal;font-variant-east-asian:normal;white-space:pre;shape-inside:url(#rect44);display:inline;fill:#cc4c70;fill-opacity:1;stroke:#000000;stroke-width:0"><tspan
           x="85.40625"
           y="1390.1328"
           id="tspan9">Ab</tspan></text>
      <text
         xml:space="preserve"
         transform="matrix(0.26458333,0,0,0.26458333,51.209239,-151.37583)"
         id="Ebtext"
         style="font-style:normal;font-variant:normal;font-weight:bold;font-stretch:normal;font-size:74.6667px;font-family:Satoshi;-inkscape-font-specification:'Satoshi, Bold';font-variant-ligatures:normal;font-variant-caps:normal;font-variant-numeric:normal;font-variant-east-asian:normal;white-space:pre;shape-inside:url(#rect45);display:inline;fill:#cc4c70;fill-opacity:1;stroke:#000000;stroke-width:0"><tspan
           x="85.40625"
           y="1390.1328"
           id="tspan10">Eb</tspan></text>
      <text
         xml:space="preserve"
         transform="matrix(0.26458333,0,0,0.26458333,62.791616,-202.57256)"
         id="Bbtext"
         style="font-style:normal;font-variant:normal;font-weight:bold;font-stretch:normal;font-size:74.6667px;font-family:Satoshi;-inkscape-font-specification:'Satoshi, Bold';font-variant-ligatures:normal;font-variant-caps:normal;font-variant-numeric:normal;font-variant-east-asian:normal;white-space:pre;shape-inside:url(#rect46);display:inline;fill:#cc4c70;fill-opacity:1;stroke:#000000;stroke-width:0"><tspan
           x="85.40625"
           y="1390.1328"
           id="tspan11">Bb</tspan></text>
      <text
         xml:space="preserve"
         transform="matrix(0.26458333,0,0,0.26458333,108.66406,-241.41074)"
         id="Ftext"
         style="font-style:normal;font-variant:normal;font-weight:bold;font-stretch:normal;font-size:74.6667px;font-family:Satoshi;-inkscape-font-specification:'Satoshi, Bold';font-variant-ligatures:normal;font-variant-caps:normal;font-variant-numeric:normal;font-variant-east-asian:normal;white-space:pre;shape-inside:url(#rect47);display:inline;fill:#cc4c70;fill-opacity:1;stroke:#000000;stroke-width:0"><tspan
           x="85.40625"
           y="1390.1328"
           id="tspan12">F</tspan></text>
    </g>
    <g
       id="g3">
      <path
         style="color:#000000;fill:#411d27;fill-opacity:1;stroke:#572a39;stroke-width:2;stroke-miterlimit:0;stroke-dasharray:none;stroke-opacity:1"
         d="m 268.88296,315.23495 c -14.62334,13.6531 -32.17362,23.8011 -51.21772,29.63838 -1.39708,0.42822 -2.23076,1.89389 -1.85255,3.30535 3.37307,12.58806 7.38886,27.57461 9.76606,36.44646 0.3782,1.41146 1.82472,2.23321 3.22392,1.81197 26.3071,-7.91984 50.53777,-21.90991 70.55006,-40.73264 1.06441,-1.00113 1.07601,-2.66472 0.0427,-3.69798 -6.50174,-6.50166 -17.47381,-17.47351 -26.72595,-26.7256 -1.03326,-1.03326 -2.71849,-1.04315 -3.78656,-0.0459 z"
         id="leadingtone"
         transform="translate(10.109939,-9.4359433)" />
      <path
         style="color:#000000;fill:#411d27;fill-opacity:1;stroke:#572a39;stroke-width:2;stroke-miterlimit:0;stroke-dasharray:none;stroke-opacity:1"
         d="m 304.93463,257.51506 c -6.07907,19.70449 -16.36337,37.02467 -29.58702,51.21564 -0.99617,1.06904 -0.98543,2.75508 0.0478,3.78834 9.26228,9.26227 20.24037,20.24054 26.74606,26.74621 1.03326,1.03326 2.70468,1.02932 3.71556,-0.0258 18.60134,-19.41596 32.93699,-43.29171 41.00116,-70.49038 0.41537,-1.40095 -0.41147,-2.8489 -1.82293,-3.2271 l -36.78976,-9.85781 c -1.41146,-0.3782 -2.88013,0.45463 -3.3109,1.85093 z"
         id="mediant"
         transform="translate(10.109939,-9.4359433)" />
      <path
         style="color:#000000;fill:#411d27;fill-opacity:1;stroke:#572a39;stroke-width:2;stroke-miterlimit:0;stroke-dasharray:none;stroke-opacity:1"
         d="m 91.702692,123.21614 c 13.757418,-13.00136 30.136608,-22.89531 47.951378,-28.96449 2.0747,-0.706814 3.31579,-2.938643 2.7485,-5.05584 -3.18672,-11.893207 -6.86028,-25.603511 -9.21217,-34.381117 -0.56729,-2.117197 -2.73763,-3.351283 -4.83164,-2.703767 -25.39788,7.853629 -48.818546,21.37519 -68.319013,39.443473 -1.607776,1.489696 -1.624201,3.986305 -0.07431,5.536197 6.628518,6.628514 17.032598,17.032724 26.087751,26.087974 1.549885,1.5499 4.056512,1.54301 5.649501,0.0376 z"
         id="subdominant"
         transform="translate(10.109939,-9.4359433)" />
      <path
         style="color:#000000;fill:#411d27;fill-opacity:1;stroke:#572a39;stroke-width:2;stroke-miterlimit:0;stroke-dasharray:none;stroke-opacity:1"
         d="m 308.01609,190.68359 c 3.87838,18.1785 3.96741,37.45205 -0.36942,56.69536 -0.48187,2.13818 0.7871,4.31818 2.9043,4.88548 l 34.21085,9.16675 c 2.1172,0.5673 4.27885,-0.69326 4.77372,-2.8285 6.19105,-26.71258 5.75245,-53.63816 -0.25575,-78.97323 -0.50576,-2.13268 -2.6756,-3.3911 -4.79279,-2.82381 -8.57925,2.29875 -21.9103,5.87068 -33.52382,8.98244 -2.11719,0.56729 -3.40442,2.75195 -2.94709,4.89551 z"
         id="submediant"
         transform="translate(10.109939,-9.4359433)" />
      <path
         style="color:#000000;fill:#411d27;fill-opacity:1;stroke:#572a39;stroke-width:2;stroke-miterlimit:0;stroke-dasharray:none;stroke-opacity:1"
         d="m 276.88054,129.76605 c 12.85019,14.19082 22.47465,31.10949 28.15434,49.48624 0.64721,2.09407 2.83114,3.34893 4.94833,2.78163 11.60194,-3.10872 24.92283,-6.67805 33.49629,-8.97526 2.11719,-0.5673 3.35126,-2.73763 2.70372,-4.83162 -7.85384,-25.39764 -21.37535,-48.81802 -39.44358,-68.318404 -1.4897,-1.607775 -3.98631,-1.6242 -5.53621,-0.07431 -6.21279,6.212764 -15.85522,15.854994 -24.22493,24.224634 -1.5499,1.54989 -1.56915,4.08241 -0.098,5.70709 z"
         id="supertonic"
         transform="translate(10.109939,-9.4359433)" />
      <path
         style="color:#000000;fill:#411d27;fill-opacity:1;stroke:#572a39;stroke-width:2;stroke-miterlimit:0;stroke-dasharray:none;stroke-opacity:1"
         d="m 219.10348,93.0349 c 18.95875,5.807167 35.66429,15.6533 49.456,28.34616 1.61275,1.48425 4.13511,1.47541 5.685,-0.0745 8.36616,-8.36615 18.00629,-18.00629 24.21755,-24.217603 1.54988,-1.549901 1.54496,-4.058242 -0.0491,-5.562582 -18.937,-17.870909 -42.03599,-31.713931 -68.26543,-39.708886 -2.0966,-0.639061 -4.2691,0.602693 -4.8364,2.719887 l -8.9922,33.559439 c -0.5673,2.117194 0.68891,4.296145 2.7846,4.938065 z"
         id="dominant"
         transform="translate(10.109939,-9.4359433)" />
      <path
         style="color:#000000;fill:#411d27;fill-opacity:1;stroke:#572a39;stroke-width:2;stroke-miterlimit:0;stroke-dasharray:none;stroke-opacity:1"
         d="m 218.73491,48.759465 c -26.71281,-6.191178 -53.63871,-5.752363 -78.97387,0.255624 -2.13268,0.505746 -3.39111,2.675566 -2.82382,4.792761 2.3482,8.763705 6.01495,22.448232 9.19599,34.320047 0.5673,2.117194 2.73944,3.356812 4.86981,2.841554 18.13265,-4.385627 37.39976,-4.89422 56.65286,-0.854015 2.14507,0.450137 4.33105,-0.842342 4.89835,-2.959535 l 9.00917,-33.622703 c 0.5673,-2.117193 -0.69326,-4.278854 -2.82849,-4.773733 z"
         id="tonic"
         transform="translate(10.109939,-9.4359433)" />
      <text
         xml:space="preserve"
         transform="matrix(0.26458333,0,0,0.26458333,163.10643,-310.70415)"
         id="text48"
         style="font-style:normal;font-variant:normal;font-weight:bold;font-stretch:normal;font-size:96px;font-family:Satoshi;-inkscape-font-specification:'Satoshi, Bold';font-variant-ligatures:normal;font-variant-caps:normal;font-variant-numeric:normal;font-variant-east-asian:normal;white-space:pre;shape-inside:url(#rect48);display:inline;fill:#cc4c70;fill-opacity:1;stroke:#000000;stroke-width:0"><tspan
           x="85.40625"
           y="1410.0367"
           id="tspan13">I</tspan></text>
      <text
         xml:space="preserve"
         transform="matrix(0.22913588,0.13229166,-0.13229166,0.22913588,420.89746,-257.17522)"
         id="text49"
         style="font-style:normal;font-variant:normal;font-weight:bold;font-stretch:normal;font-size:96px;font-family:Satoshi;-inkscape-font-specification:'Satoshi, Bold';font-variant-ligatures:normal;font-variant-caps:normal;font-variant-numeric:normal;font-variant-east-asian:normal;white-space:pre;shape-inside:url(#rect49);display:inline;fill:#cc4c70;fill-opacity:1;stroke:#000000;stroke-width:0"><tspan
           x="85.40625"
           y="1410.0367"
           id="tspan14">V</tspan></text>
      <text
         xml:space="preserve"
         transform="matrix(0.22913588,-0.13229166,0.13229166,0.22913588,-100.48338,-222.61443)"
         id="text50"
         style="font-style:normal;font-variant:normal;font-weight:bold;font-stretch:normal;font-size:96px;font-family:Satoshi;-inkscape-font-specification:'Satoshi, Bold';font-variant-ligatures:normal;font-variant-caps:normal;font-variant-numeric:normal;font-variant-east-asian:normal;white-space:pre;shape-inside:url(#rect50);display:inline;fill:#cc4c70;fill-opacity:1;stroke:#000000;stroke-width:0"><tspan
           x="85.40625"
           y="1410.0367"
           id="tspan15">IV</tspan></text>
      <text
         xml:space="preserve"
         transform="matrix(0.13229166,0.22913588,-0.22913588,0.13229166,625.46546,-74.980726)"
         id="text51"
         style="font-style:normal;font-variant:normal;font-weight:bold;font-stretch:normal;font-size:96px;font-family:Satoshi;-inkscape-font-specification:'Satoshi, Bold';font-variant-ligatures:normal;font-variant-caps:normal;font-variant-numeric:normal;font-variant-east-asian:normal;white-space:pre;shape-inside:url(#rect51);display:inline;fill:#cc4c70;fill-opacity:1;stroke:#000000;stroke-width:0"><tspan
           x="85.40625"
           y="1410.0367"
           id="tspan16">ii</tspan></text>
      <text
         xml:space="preserve"
         transform="matrix(0,0.26458333,-0.26458333,0,708.71328,176.98553)"
         id="text52"
         style="font-style:normal;font-variant:normal;font-weight:bold;font-stretch:normal;font-size:96px;font-family:Satoshi;-inkscape-font-specification:'Satoshi, Bold';font-variant-ligatures:normal;font-variant-caps:normal;font-variant-numeric:normal;font-variant-east-asian:normal;white-space:pre;shape-inside:url(#rect52);display:inline;fill:#cc4c70;fill-opacity:1;stroke:#000000;stroke-width:0"><tspan
           x="85.40625"
           y="1410.0367"
           id="tspan17">vi</tspan></text>
      <text
         xml:space="preserve"
         transform="matrix(-0.13229166,0.22913588,-0.22913588,-0.13229166,655.92383,441.01845)"
         id="text53"
         style="font-style:normal;font-variant:normal;font-weight:bold;font-stretch:normal;font-size:96px;font-family:Satoshi;-inkscape-font-specification:'Satoshi, Bold';font-variant-ligatures:normal;font-variant-caps:normal;font-variant-numeric:normal;font-variant-east-asian:normal;white-space:pre;shape-inside:url(#rect53);display:inline;fill:#cc4c70;fill-opacity:1;stroke:#000000;stroke-width:0"><tspan
           x="85.40625"
           y="1410.0367"
           id="tspan18">iii</tspan></text>
      <text
         xml:space="preserve"
         transform="matrix(-0.22913588,0.13229166,-0.13229166,-0.22913588,481.73022,640.38046)"
         id="text54"
         style="font-style:normal;font-variant:normal;font-weight:bold;font-stretch:normal;font-size:96px;font-family:Satoshi;-inkscape-font-specification:'Satoshi, Bold';font-variant-ligatures:normal;font-variant-caps:normal;font-variant-numeric:normal;font-variant-east-asian:normal;white-space:pre;shape-inside:url(#rect54);display:inline;fill:#cc4c70;fill-opacity:1;stroke:#000000;stroke-width:0"><tspan
           x="85.40625"
           y="1410.0367"
           id="tspan19">vii°</tspan></text>
      <text
         xml:space="preserve"
         style="font-style:normal;font-variant:normal;font-weight:normal;font-stretch:normal;font-size:8.46667px;font-family:Satoshi;-inkscape-font-specification:'Satoshi, Normal';font-variant-ligatures:normal;font-variant-caps:normal;font-variant-numeric:normal;font-variant-east-asian:normal;fill:#ffffff;fill-opacity:1;stroke:#000000;stroke-width:0"
         x="179.40005"
         y="73.699387"
         id="text55"><tspan
           id="tspan55"
           style="font-style:normal;font-variant:normal;font-weight:normal;font-stretch:normal;font-size:8.46667px;font-family:Satoshi;-inkscape-font-specification:'Satoshi, Normal';font-variant-ligatures:normal;font-variant-caps:normal;font-variant-numeric:normal;font-variant-east-asian:normal;fill:#ffffff;stroke-width:0"
           x="179.40005"
           y="73.699387">tonic</tspan></text>
      <text
         xml:space="preserve"
         style="font-style:normal;font-variant:normal;font-weight:normal;font-stretch:normal;font-size:8.46667px;font-family:Satoshi;-inkscape-font-specification:'Satoshi, Normal';font-variant-ligatures:normal;font-variant-caps:normal;font-variant-numeric:normal;font-variant-east-asian:normal;fill:#ffffff;fill-opacity:1;stroke:#000000;stroke-width:0"
         x="26.86002"
         y="143.1696"
         id="text56"
         transform="rotate(-32.691955)"><tspan
           id="tspan56"
           x="26.86002"
           y="143.1696">subdominant</tspan></text>
      <text
         xml:space="preserve"
         style="font-style:normal;font-variant:normal;font-weight:normal;font-stretch:normal;font-size:8.46667px;font-family:Satoshi;-inkscape-font-specification:'Satoshi, Normal';font-variant-ligatures:normal;font-variant-caps:normal;font-variant-numeric:normal;font-variant-east-asian:normal;fill:#ffffff;fill-opacity:1;stroke:#000000;stroke-width:0"
         x="248.25574"
         y="-49.615841"
         id="text57"
         transform="rotate(30)"><tspan
           id="tspan57"
           x="248.25574"
           y="-49.615841">dominant</tspan></text>
      <text
         xml:space="preserve"
         style="font-style:normal;font-variant:normal;font-weight:normal;font-stretch:normal;font-size:8.46667px;font-family:Satoshi;-inkscape-font-specification:'Satoshi, Normal';font-variant-ligatures:normal;font-variant-caps:normal;font-variant-numeric:normal;font-variant-east-asian:normal;fill:#ffffff;fill-opacity:1;stroke:#000000;stroke-width:0"
         x="256.82983"
         y="-193.96671"
         id="text58"
         transform="rotate(59.500948)"><tspan
           id="tspan58"
           x="256.82983"
           y="-193.96671">supertonic</tspan></text>
      <text
         xml:space="preserve"
         style="font-style:normal;font-variant:normal;font-weight:normal;font-stretch:normal;font-size:8.46667px;font-family:Satoshi;-inkscape-font-specification:'Satoshi, Normal';font-variant-ligatures:normal;font-variant-caps:normal;font-variant-numeric:normal;font-variant-east-asian:normal;fill:#ffffff;fill-opacity:1;stroke:#000000;stroke-width:0"
         x="185.61484"
         y="-325.44382"
         id="text59"
         transform="rotate(90)"><tspan
           id="tspan59"
           x="185.61484"
           y="-325.44382">submediant</tspan></text>
      <text
         xml:space="preserve"
         style="font-style:normal;font-variant:normal;font-weight:normal;font-stretch:normal;font-size:8.46667px;font-family:Satoshi;-inkscape-font-specification:'Satoshi, Normal';font-variant-ligatures:normal;font-variant-caps:normal;font-variant-numeric:normal;font-variant-east-asian:normal;fill:#ffffff;fill-opacity:1;stroke:#000000;stroke-width:0"
         x="70.561661"
         y="-404.64557"
         id="text60"
         transform="rotate(120)"><tspan
           x="70.561661"
           y="-404.64557"
           id="tspan62">mediant</tspan></text>
      <text
         xml:space="preserve"
         style="font-style:normal;font-variant:normal;font-weight:normal;font-stretch:normal;font-size:8.46667px;font-family:Satoshi;-inkscape-font-specification:'Satoshi, Normal';font-variant-ligatures:normal;font-variant-caps:normal;font-variant-numeric:normal;font-variant-east-asian:normal;fill:#ffffff;fill-opacity:1;stroke:#000000;stroke-width:0"
         x="-80.010712"
         y="-413.48062"
         id="text61"
         transform="rotate(149.4933)"><tspan
           id="tspan61"
           x="-80.010712"
           y="-413.48062">leading tone</tspan></text>
    </g>
  </g>
</svg>
